<?xml version="1.0" standalone="no"?>
<!DOCTYPE svg PUBLIC "-//W3C//DTD SVG 20010904//EN"
 "http://www.w3.org/TR/2001/REC-SVG-20010904/DTD/svg10.dtd">
<svg version="1.0" xmlns="http://www.w3.org/2000/svg"
 width="350.000000pt" height="350.000000pt" viewBox="0 0 350.000000 350.000000"
 preserveAspectRatio="xMidYMid meet">
<metadata>
Created by potrace 1.11, written by Peter Selinger 2001-2013
</metadata>
<g transform="translate(0.000000,350.000000) scale(0.100000,-0.100000)"
fill="#000000" stroke="none">
<path d="M0 1750 l0 -1750 1750 0 1750 0 0 1750 0 1750 -1750 0 -1750 0 0
-1750z m1400 1164 c341 -1 488 -6 588 -18 148 -18 217 -33 231 -50 12 -15 -1
-77 -23 -111 -26 -39 -91 -82 -146 -96 -28 -7 -50 -16 -50 -21 0 -12 50 -35
95 -43 107 -19 245 -112 275 -185 l12 -30 31 26 c87 73 251 117 301 81 21 -16
35 -111 36 -244 0 -227 -65 -454 -178 -620 -54 -78 -93 -115 -112 -103 -16 10
-17 3 34 225 35 150 66 340 66 399 l0 50 -57 -84 c-70 -102 -202 -242 -292
-311 -85 -64 -244 -143 -346 -170 -61 -17 -110 -22 -210 -23 -71 -1 -144 2
-161 6 l-30 7 -43 -102 c-64 -149 -155 -321 -213 -401 -99 -137 -331 -396
-354 -396 -30 0 -25 32 14 93 103 163 199 392 227 542 31 159 6 317 -64 417
-37 55 -104 118 -158 152 -44 27 -56 59 -27 70 9 3 58 6 110 6 180 0 452 43
619 97 164 53 345 172 345 226 0 15 -42 62 -125 143 -115 112 -125 125 -125
158 l0 36 -59 0 c-96 0 -140 28 -113 71 11 17 4 18 -145 18 -86 1 -173 3 -193
6 -121 19 -171 31 -224 52 -92 35 -166 118 -123 137 6 3 39 3 72 -1 33 -3 265
-7 515 -9z m20 -1984 c0 -23 -4 -30 -20 -30 -11 0 -20 7 -20 15 0 9 -9 15 -25
15 -25 0 -25 -1 -25 -90 l0 -90 45 0 c33 0 45 -4 45 -15 0 -12 -14 -15 -70
-15 l-70 0 0 120 0 120 70 0 70 0 0 -30z m230 -90 c0 -113 -1 -120 -20 -120
-18 0 -20 7 -20 55 0 54 0 55 -30 55 -30 0 -30 -1 -30 -55 0 -48 -2 -55 -20
-55 -19 0 -20 7 -20 120 l0 120 70 0 70 0 0 -120z m158 64 l27 -56 5 53 c4 41
9 55 23 57 15 3 17 -8 17 -117 0 -146 -12 -156 -64 -53 l-35 67 -1 -67 c0 -61
-2 -68 -20 -68 -19 0 -20 7 -20 113 0 63 3 117 7 120 17 18 35 2 61 -49z m230
0 l27 -56 5 53 c4 41 9 55 23 57 15 3 17 -8 17 -117 0 -146 -12 -156 -64 -53
l-35 67 -1 -67 c0 -61 -2 -68 -20 -68 -19 0 -20 7 -20 113 0 63 3 117 7 120
17 18 35 2 61 -49z m302 41 c0 -11 -12 -15 -50 -15 -47 0 -50 -2 -50 -25 0
-23 3 -25 50 -25 38 0 50 -4 50 -15 0 -11 -12 -15 -50 -15 l-50 0 0 -50 0 -50
50 0 c38 0 50 -4 50 -15 0 -12 -14 -15 -70 -15 l-70 0 0 120 0 120 70 0 c56 0
70 -3 70 -15z m130 -50 l0 -65 30 0 30 0 0 65 c0 58 2 65 20 65 19 0 20 -7 20
-120 l0 -120 -70 0 c-56 0 -70 3 -70 15 0 11 12 15 50 15 47 0 50 2 50 25 0
23 -3 25 -50 25 l-50 0 0 80 c0 73 2 80 20 80 18 0 20 -7 20 -65z"/>
<path d="M945 2846 c99 -48 197 -61 465 -61 231 0 259 -3 260 -28 0 -4 -20
-17 -45 -29 -25 -12 -45 -26 -45 -31 0 -7 128 -1 158 8 20 7 42 -6 42 -24 0
-10 -13 -27 -30 -39 -16 -13 -30 -28 -30 -34 0 -7 54 -64 119 -127 174 -169
178 -196 45 -305 -148 -122 -418 -210 -729 -237 -66 -6 -139 -13 -161 -15
l-42 -5 52 -49 c108 -103 154 -221 155 -400 1 -126 -29 -262 -89 -409 l-40
-96 36 40 c113 125 170 221 288 480 l73 160 184 0 c164 0 193 3 264 24 166 49
301 137 448 292 69 72 123 141 167 213 51 83 69 106 85 104 30 -4 47 -84 40
-183 -6 -73 -69 -414 -81 -439 -3 -6 3 0 15 14 28 34 87 178 112 275 22 85 38
367 25 439 -7 35 -8 36 -52 36 -59 0 -138 -38 -203 -96 -28 -25 -58 -44 -67
-42 -10 2 -22 21 -29 45 -27 90 -96 148 -220 184 -109 32 -122 39 -160 81 -48
53 -43 68 27 84 98 23 171 71 180 118 3 17 -6 22 -70 32 -164 28 -313 36 -656
32 -193 -1 -394 0 -446 4 l-95 8 50 -24z"/>
<path d="M1550 895 c0 -32 2 -35 30 -35 28 0 30 3 30 35 0 32 -2 35 -30 35
-28 0 -30 -3 -30 -35z"/>
</g>
</svg>
